<mxfile host="Electron" modified="2023-05-27T02:50:06.353Z" agent="Mozilla/5.0 (Windows NT 10.0; Win64; x64) AppleWebKit/537.36 (KHTML, like Gecko) draw.io/21.2.8 Chrome/112.0.5615.165 Electron/24.2.0 Safari/537.36" etag="daMc5WyGUjBPLI915ekm" version="21.2.8" type="device">
  <diagram name="Page-1" id="kASAJU_0JczIn-Fkkjzf">
    <mxGraphModel dx="1920" dy="1236" grid="1" gridSize="10" guides="0" tooltips="1" connect="1" arrows="1" fold="1" page="1" pageScale="1" pageWidth="850" pageHeight="1100" math="0" shadow="0">
      <root>
        <mxCell id="0" />
        <mxCell id="1" parent="0" />
        <mxCell id="NwuVcY80nq5zYPx6CeKI-1" value="&lt;u&gt;PID&lt;/u&gt;&amp;nbsp; &amp;nbsp; &amp;nbsp; Fname&amp;nbsp; Lname&amp;nbsp; Gender&amp;nbsp; &amp;nbsp;E-mai&amp;nbsp; &amp;nbsp; &amp;nbsp;NIC&amp;nbsp; DOB&amp;nbsp; NID&amp;nbsp; DID&amp;nbsp; &amp;nbsp; &amp;nbsp;" style="rounded=0;whiteSpace=wrap;html=1;strokeWidth=2;fontFamily=Helvetica;fontSize=20;fontColor=default;fillColor=none;gradientColor=none;" parent="1" vertex="1">
          <mxGeometry x="121" y="140" width="589" height="32" as="geometry" />
        </mxCell>
        <mxCell id="NwuVcY80nq5zYPx6CeKI-9" style="rounded=0;orthogonalLoop=1;jettySize=auto;html=1;endArrow=none;endFill=0;strokeWidth=2;exitX=0.094;exitY=0.034;exitDx=0;exitDy=0;exitPerimeter=0;entryX=0.094;entryY=0.986;entryDx=0;entryDy=0;entryPerimeter=0;" parent="1" target="NwuVcY80nq5zYPx6CeKI-1" edge="1" source="NwuVcY80nq5zYPx6CeKI-1">
          <mxGeometry relative="1" as="geometry">
            <mxPoint x="182" y="140" as="sourcePoint" />
            <mxPoint x="174" y="170" as="targetPoint" />
          </mxGeometry>
        </mxCell>
        <mxCell id="NwuVcY80nq5zYPx6CeKI-12" style="rounded=0;orthogonalLoop=1;jettySize=auto;html=1;endArrow=none;endFill=0;strokeWidth=2;entryX=0.233;entryY=0.959;entryDx=0;entryDy=0;entryPerimeter=0;" parent="1" target="NwuVcY80nq5zYPx6CeKI-1" edge="1">
          <mxGeometry relative="1" as="geometry">
            <mxPoint x="258" y="140" as="sourcePoint" />
            <mxPoint x="257" y="170" as="targetPoint" />
          </mxGeometry>
        </mxCell>
        <mxCell id="NwuVcY80nq5zYPx6CeKI-13" style="rounded=0;orthogonalLoop=1;jettySize=auto;html=1;endArrow=none;endFill=0;strokeWidth=2;entryX=0.391;entryY=0.034;entryDx=0;entryDy=0;entryPerimeter=0;exitX=0.391;exitY=1;exitDx=0;exitDy=0;exitPerimeter=0;" parent="1" source="NwuVcY80nq5zYPx6CeKI-1" target="NwuVcY80nq5zYPx6CeKI-1" edge="1">
          <mxGeometry relative="1" as="geometry">
            <mxPoint x="340" y="170" as="sourcePoint" />
            <mxPoint x="340" y="140" as="targetPoint" />
          </mxGeometry>
        </mxCell>
        <mxCell id="NwuVcY80nq5zYPx6CeKI-14" style="rounded=0;orthogonalLoop=1;jettySize=auto;html=1;endArrow=none;endFill=0;strokeWidth=2;exitX=0.354;exitY=1.039;exitDx=0;exitDy=0;exitPerimeter=0;" parent="1" source="NwuVcY80nq5zYPx6CeKI-1" edge="1">
          <mxGeometry relative="1" as="geometry">
            <mxPoint x="328" y="170" as="sourcePoint" />
            <mxPoint x="328" y="140" as="targetPoint" />
            <Array as="points">
              <mxPoint x="328" y="140" />
            </Array>
          </mxGeometry>
        </mxCell>
        <mxCell id="NwuVcY80nq5zYPx6CeKI-15" style="rounded=0;orthogonalLoop=1;jettySize=auto;html=1;endArrow=none;endFill=0;strokeWidth=2;entryX=0.709;entryY=-0.009;entryDx=0;entryDy=0;entryPerimeter=0;exitX=0.71;exitY=1.039;exitDx=0;exitDy=0;exitPerimeter=0;" parent="1" source="NwuVcY80nq5zYPx6CeKI-1" target="NwuVcY80nq5zYPx6CeKI-1" edge="1">
          <mxGeometry relative="1" as="geometry">
            <mxPoint x="540" y="170" as="sourcePoint" />
            <mxPoint x="500" y="120" as="targetPoint" />
          </mxGeometry>
        </mxCell>
        <mxCell id="NwuVcY80nq5zYPx6CeKI-16" style="rounded=0;orthogonalLoop=1;jettySize=auto;html=1;endArrow=none;endFill=0;strokeWidth=2;entryX=0.801;entryY=-0.029;entryDx=0;entryDy=0;entryPerimeter=0;exitX=0.803;exitY=0.999;exitDx=0;exitDy=0;exitPerimeter=0;" parent="1" source="NwuVcY80nq5zYPx6CeKI-1" target="NwuVcY80nq5zYPx6CeKI-1" edge="1">
          <mxGeometry relative="1" as="geometry">
            <mxPoint x="600" y="170" as="sourcePoint" />
            <mxPoint x="600" y="140" as="targetPoint" />
            <Array as="points" />
          </mxGeometry>
        </mxCell>
        <mxCell id="NwuVcY80nq5zYPx6CeKI-27" value="&lt;u&gt;PlanID&lt;/u&gt;&amp;nbsp; &amp;nbsp; &amp;nbsp; Plan_name&amp;nbsp; &amp;nbsp;Calorie_goal&amp;nbsp;&amp;nbsp;" style="rounded=0;whiteSpace=wrap;html=1;strokeWidth=2;fontFamily=Helvetica;fontSize=20;fontColor=default;fillColor=none;gradientColor=none;" parent="1" vertex="1">
          <mxGeometry x="120" y="260" width="380" height="32" as="geometry" />
        </mxCell>
        <mxCell id="NwuVcY80nq5zYPx6CeKI-29" style="rounded=0;orthogonalLoop=1;jettySize=auto;html=1;endArrow=none;endFill=0;strokeWidth=2;entryX=0.287;entryY=0.993;entryDx=0;entryDy=0;entryPerimeter=0;" parent="1" source="NwuVcY80nq5zYPx6CeKI-27" target="NwuVcY80nq5zYPx6CeKI-27" edge="1">
          <mxGeometry relative="1" as="geometry">
            <mxPoint x="254" y="200.99" as="sourcePoint" />
            <mxPoint x="263" y="230.99" as="targetPoint" />
          </mxGeometry>
        </mxCell>
        <mxCell id="NwuVcY80nq5zYPx6CeKI-43" style="rounded=0;orthogonalLoop=1;jettySize=auto;html=1;endArrow=none;endFill=0;strokeWidth=2;entryX=0.25;entryY=0;entryDx=0;entryDy=0;exitX=0.25;exitY=1;exitDx=0;exitDy=0;" parent="1" source="NwuVcY80nq5zYPx6CeKI-27" target="NwuVcY80nq5zYPx6CeKI-27" edge="1">
          <mxGeometry relative="1" as="geometry">
            <mxPoint x="260" y="370" as="sourcePoint" />
            <mxPoint x="260" y="403" as="targetPoint" />
          </mxGeometry>
        </mxCell>
        <mxCell id="NwuVcY80nq5zYPx6CeKI-44" style="rounded=0;orthogonalLoop=1;jettySize=auto;html=1;endArrow=none;endFill=0;strokeWidth=2;exitX=0.589;exitY=0;exitDx=0;exitDy=0;exitPerimeter=0;entryX=0.59;entryY=0.983;entryDx=0;entryDy=0;entryPerimeter=0;" parent="1" source="NwuVcY80nq5zYPx6CeKI-27" target="NwuVcY80nq5zYPx6CeKI-27" edge="1">
          <mxGeometry relative="1" as="geometry">
            <mxPoint x="360" y="450" as="sourcePoint" />
            <mxPoint x="344" y="290" as="targetPoint" />
          </mxGeometry>
        </mxCell>
        <mxCell id="NwuVcY80nq5zYPx6CeKI-46" value="&lt;u&gt;Check_up ID&lt;/u&gt;&amp;nbsp; &amp;nbsp; Blood_suger_level&amp;nbsp; &amp;nbsp;Pressure_level&amp;nbsp; &amp;nbsp;Cholesterol_level&amp;nbsp; &amp;nbsp;Date" style="rounded=0;whiteSpace=wrap;html=1;strokeWidth=2;fontFamily=Helvetica;fontSize=20;fontColor=default;fillColor=none;gradientColor=none;" parent="1" vertex="1">
          <mxGeometry x="120" y="380" width="710" height="32" as="geometry" />
        </mxCell>
        <mxCell id="NwuVcY80nq5zYPx6CeKI-47" value="&lt;font style=&quot;font-size: 17px;&quot;&gt;&lt;b&gt;&lt;font style=&quot;font-size: 17px;&quot;&gt;Patient&lt;/font&gt;&lt;/b&gt;&amp;nbsp;&lt;/font&gt;" style="text;html=1;align=center;verticalAlign=middle;resizable=0;points=[];autosize=1;strokeColor=none;fillColor=none;" parent="1" vertex="1">
          <mxGeometry x="120" y="70" width="80" height="30" as="geometry" />
        </mxCell>
        <mxCell id="NwuVcY80nq5zYPx6CeKI-49" value="&lt;b&gt;&lt;font style=&quot;font-size: 17px;&quot;&gt;Diet_Plan&lt;/font&gt;&lt;/b&gt;" style="text;html=1;align=center;verticalAlign=middle;resizable=0;points=[];autosize=1;strokeColor=none;fillColor=none;" parent="1" vertex="1">
          <mxGeometry x="120" y="200" width="100" height="30" as="geometry" />
        </mxCell>
        <mxCell id="NwuVcY80nq5zYPx6CeKI-50" value="&lt;b&gt;&lt;font style=&quot;font-size: 17px;&quot;&gt;Health Check_up&lt;/font&gt;&lt;/b&gt;" style="text;html=1;align=center;verticalAlign=middle;resizable=0;points=[];autosize=1;strokeColor=none;fillColor=none;" parent="1" vertex="1">
          <mxGeometry x="120" y="320" width="160" height="30" as="geometry" />
        </mxCell>
        <mxCell id="NwuVcY80nq5zYPx6CeKI-51" style="rounded=0;orthogonalLoop=1;jettySize=auto;html=1;endArrow=none;endFill=0;strokeWidth=2;entryX=0.194;entryY=0.031;entryDx=0;entryDy=0;entryPerimeter=0;exitX=0.194;exitY=1;exitDx=0;exitDy=0;exitPerimeter=0;" parent="1" source="NwuVcY80nq5zYPx6CeKI-46" target="NwuVcY80nq5zYPx6CeKI-46" edge="1">
          <mxGeometry relative="1" as="geometry">
            <mxPoint x="230" y="460" as="sourcePoint" />
            <mxPoint x="231" y="493" as="targetPoint" />
          </mxGeometry>
        </mxCell>
        <mxCell id="NwuVcY80nq5zYPx6CeKI-52" style="rounded=0;orthogonalLoop=1;jettySize=auto;html=1;endArrow=none;endFill=0;strokeWidth=2;entryX=0.453;entryY=0.997;entryDx=0;entryDy=0;entryPerimeter=0;" parent="1" target="NwuVcY80nq5zYPx6CeKI-46" edge="1">
          <mxGeometry relative="1" as="geometry">
            <mxPoint x="442" y="380" as="sourcePoint" />
            <mxPoint x="442" y="410" as="targetPoint" />
          </mxGeometry>
        </mxCell>
        <mxCell id="NwuVcY80nq5zYPx6CeKI-53" style="rounded=0;orthogonalLoop=1;jettySize=auto;html=1;endArrow=none;endFill=0;strokeWidth=2;entryX=0.673;entryY=0.031;entryDx=0;entryDy=0;entryPerimeter=0;exitX=0.674;exitY=0.997;exitDx=0;exitDy=0;exitPerimeter=0;" parent="1" source="NwuVcY80nq5zYPx6CeKI-46" target="NwuVcY80nq5zYPx6CeKI-46" edge="1">
          <mxGeometry relative="1" as="geometry">
            <mxPoint x="598" y="410" as="sourcePoint" />
            <mxPoint x="511" y="463" as="targetPoint" />
          </mxGeometry>
        </mxCell>
        <mxCell id="NwuVcY80nq5zYPx6CeKI-54" style="rounded=0;orthogonalLoop=1;jettySize=auto;html=1;endArrow=none;endFill=0;strokeWidth=2;entryX=0.908;entryY=-0.062;entryDx=0;entryDy=0;entryPerimeter=0;exitX=0.908;exitY=0.969;exitDx=0;exitDy=0;exitPerimeter=0;" parent="1" source="NwuVcY80nq5zYPx6CeKI-46" target="NwuVcY80nq5zYPx6CeKI-46" edge="1">
          <mxGeometry relative="1" as="geometry">
            <mxPoint x="760" y="390" as="sourcePoint" />
            <mxPoint x="621" y="503" as="targetPoint" />
          </mxGeometry>
        </mxCell>
        <mxCell id="NwuVcY80nq5zYPx6CeKI-55" value="&lt;b&gt;&lt;font style=&quot;font-size: 17px;&quot;&gt;Report&lt;/font&gt;&lt;/b&gt;" style="text;html=1;align=center;verticalAlign=middle;resizable=0;points=[];autosize=1;strokeColor=none;fillColor=none;" parent="1" vertex="1">
          <mxGeometry x="120" y="450" width="80" height="30" as="geometry" />
        </mxCell>
        <mxCell id="aw9R8d-JMyGhQJO1moxB-1" value="&lt;u&gt;RID&lt;/u&gt;&amp;nbsp; report_type&amp;nbsp; &amp;nbsp;Recommendation&amp;nbsp; PID Checkup_ID&amp;nbsp; PlanID&amp;nbsp;" style="rounded=0;whiteSpace=wrap;html=1;strokeWidth=2;fontFamily=Helvetica;fontSize=20;fontColor=default;fillColor=none;gradientColor=none;" parent="1" vertex="1">
          <mxGeometry x="120" y="510" width="590" height="32" as="geometry" />
        </mxCell>
        <mxCell id="aw9R8d-JMyGhQJO1moxB-3" style="rounded=0;orthogonalLoop=1;jettySize=auto;html=1;endArrow=none;endFill=0;strokeWidth=2;entryX=0.1;entryY=0.031;entryDx=0;entryDy=0;entryPerimeter=0;exitX=0.1;exitY=1.003;exitDx=0;exitDy=0;exitPerimeter=0;" parent="1" source="aw9R8d-JMyGhQJO1moxB-1" target="aw9R8d-JMyGhQJO1moxB-1" edge="1">
          <mxGeometry relative="1" as="geometry">
            <mxPoint x="180" y="540" as="sourcePoint" />
            <mxPoint x="230" y="630" as="targetPoint" />
          </mxGeometry>
        </mxCell>
        <mxCell id="aw9R8d-JMyGhQJO1moxB-4" style="rounded=0;orthogonalLoop=1;jettySize=auto;html=1;endArrow=none;endFill=0;strokeWidth=2;entryX=0.286;entryY=1.031;entryDx=0;entryDy=0;entryPerimeter=0;" parent="1" target="aw9R8d-JMyGhQJO1moxB-1" edge="1">
          <mxGeometry relative="1" as="geometry">
            <mxPoint x="289" y="510" as="sourcePoint" />
            <mxPoint x="260" y="670" as="targetPoint" />
          </mxGeometry>
        </mxCell>
        <mxCell id="aw9R8d-JMyGhQJO1moxB-5" style="rounded=0;orthogonalLoop=1;jettySize=auto;html=1;endArrow=none;endFill=0;strokeWidth=2;entryX=0.58;entryY=1;entryDx=0;entryDy=0;entryPerimeter=0;" parent="1" target="aw9R8d-JMyGhQJO1moxB-1" edge="1">
          <mxGeometry relative="1" as="geometry">
            <mxPoint x="462" y="510" as="sourcePoint" />
            <mxPoint x="510" y="640" as="targetPoint" />
          </mxGeometry>
        </mxCell>
        <mxCell id="aw9R8d-JMyGhQJO1moxB-7" value="&lt;b&gt;&lt;font style=&quot;font-size: 17px;&quot;&gt;Payment&lt;/font&gt;&lt;/b&gt;" style="text;html=1;align=center;verticalAlign=middle;resizable=0;points=[];autosize=1;strokeColor=none;fillColor=none;" parent="1" vertex="1">
          <mxGeometry x="120" y="600" width="90" height="30" as="geometry" />
        </mxCell>
        <mxCell id="aw9R8d-JMyGhQJO1moxB-8" value="&lt;u&gt;Pay_ID&lt;/u&gt;&amp;nbsp; &amp;nbsp;Amount&amp;nbsp; Pay_Method&amp;nbsp; &amp;nbsp;PID" style="rounded=0;whiteSpace=wrap;html=1;strokeWidth=2;fontFamily=Helvetica;fontSize=20;fontColor=default;fillColor=none;gradientColor=none;" parent="1" vertex="1">
          <mxGeometry x="120" y="670" width="370" height="32" as="geometry" />
        </mxCell>
        <mxCell id="aw9R8d-JMyGhQJO1moxB-9" value="&lt;b&gt;&lt;font style=&quot;font-size: 17px;&quot;&gt;Doctor&lt;/font&gt;&lt;/b&gt;" style="text;html=1;align=center;verticalAlign=middle;resizable=0;points=[];autosize=1;strokeColor=none;fillColor=none;" parent="1" vertex="1">
          <mxGeometry x="120" y="760" width="80" height="30" as="geometry" />
        </mxCell>
        <mxCell id="aw9R8d-JMyGhQJO1moxB-10" value="&lt;u&gt;DID&lt;/u&gt;&amp;nbsp; &amp;nbsp;Dname&amp;nbsp; &amp;nbsp;Speciality&amp;nbsp; &amp;nbsp;Phone_no" style="rounded=0;whiteSpace=wrap;html=1;strokeWidth=2;fontFamily=Helvetica;fontSize=20;fontColor=default;fillColor=none;gradientColor=none;" parent="1" vertex="1">
          <mxGeometry x="120" y="820" width="370" height="32" as="geometry" />
        </mxCell>
        <mxCell id="aw9R8d-JMyGhQJO1moxB-11" value="&lt;b&gt;&lt;font style=&quot;font-size: 17px;&quot;&gt;Nutritionist&lt;/font&gt;&lt;/b&gt;" style="text;html=1;align=center;verticalAlign=middle;resizable=0;points=[];autosize=1;strokeColor=none;fillColor=none;" parent="1" vertex="1">
          <mxGeometry x="120" y="910" width="110" height="30" as="geometry" />
        </mxCell>
        <mxCell id="aw9R8d-JMyGhQJO1moxB-12" value="&lt;u&gt;NID&lt;/u&gt;&amp;nbsp; &amp;nbsp;Nname&amp;nbsp; &amp;nbsp;Phone_no&amp;nbsp; &amp;nbsp;Experience" style="rounded=0;whiteSpace=wrap;html=1;strokeWidth=2;fontFamily=Helvetica;fontSize=20;fontColor=default;fillColor=none;gradientColor=none;" parent="1" vertex="1">
          <mxGeometry x="120" y="960" width="370" height="32" as="geometry" />
        </mxCell>
        <mxCell id="aw9R8d-JMyGhQJO1moxB-13" value="&lt;b&gt;&lt;font style=&quot;font-size: 17px;&quot;&gt;Meal Plan&lt;/font&gt;&lt;/b&gt;" style="text;html=1;align=center;verticalAlign=middle;resizable=0;points=[];autosize=1;strokeColor=none;fillColor=none;" parent="1" vertex="1">
          <mxGeometry x="120" y="1040" width="100" height="30" as="geometry" />
        </mxCell>
        <mxCell id="aw9R8d-JMyGhQJO1moxB-14" value="&lt;u&gt;NID&lt;/u&gt;&amp;nbsp; &lt;u&gt;MPname&lt;/u&gt;&amp;nbsp; &amp;nbsp;Food&amp;nbsp; &amp;nbsp;Calorie_unit&amp;nbsp; &amp;nbsp;PID" style="rounded=0;whiteSpace=wrap;html=1;strokeWidth=2;fontFamily=Helvetica;fontSize=20;fontColor=default;fillColor=none;gradientColor=none;" parent="1" vertex="1">
          <mxGeometry x="120" y="1100" width="400" height="32" as="geometry" />
        </mxCell>
        <mxCell id="aw9R8d-JMyGhQJO1moxB-15" value="&lt;b&gt;&lt;font style=&quot;font-size: 17px;&quot;&gt;Patient_Diet Plan&lt;/font&gt;&lt;/b&gt;" style="text;html=1;align=center;verticalAlign=middle;resizable=0;points=[];autosize=1;strokeColor=none;fillColor=none;" parent="1" vertex="1">
          <mxGeometry x="120" y="1200" width="160" height="30" as="geometry" />
        </mxCell>
        <mxCell id="aw9R8d-JMyGhQJO1moxB-16" value="&lt;u&gt;PID&lt;/u&gt;&amp;nbsp; &lt;u&gt;PlanID&lt;/u&gt;&amp;nbsp; Start_date&amp;nbsp; End_date&amp;nbsp;" style="rounded=0;whiteSpace=wrap;html=1;strokeWidth=2;fontFamily=Helvetica;fontSize=20;fontColor=default;fillColor=none;gradientColor=none;" parent="1" vertex="1">
          <mxGeometry x="120" y="1270" width="320" height="32" as="geometry" />
        </mxCell>
        <mxCell id="aw9R8d-JMyGhQJO1moxB-17" value="&lt;b&gt;&lt;font style=&quot;font-size: 17px;&quot;&gt;Patient_Phone&lt;/font&gt;&lt;/b&gt;" style="text;html=1;align=center;verticalAlign=middle;resizable=0;points=[];autosize=1;strokeColor=none;fillColor=none;" parent="1" vertex="1">
          <mxGeometry x="120" y="1360" width="140" height="30" as="geometry" />
        </mxCell>
        <mxCell id="aw9R8d-JMyGhQJO1moxB-18" value="&lt;u&gt;PID&lt;/u&gt;&amp;nbsp; &lt;u&gt;Phone_NO&lt;/u&gt;" style="rounded=0;whiteSpace=wrap;html=1;strokeWidth=2;fontFamily=Helvetica;fontSize=20;fontColor=default;fillColor=none;gradientColor=none;" parent="1" vertex="1">
          <mxGeometry x="120" y="1420" width="190" height="32" as="geometry" />
        </mxCell>
        <mxCell id="aw9R8d-JMyGhQJO1moxB-19" style="rounded=0;orthogonalLoop=1;jettySize=auto;html=1;endArrow=none;endFill=0;strokeWidth=2;entryX=0.25;entryY=0;entryDx=0;entryDy=0;exitX=0.25;exitY=1;exitDx=0;exitDy=0;" parent="1" source="aw9R8d-JMyGhQJO1moxB-8" target="aw9R8d-JMyGhQJO1moxB-8" edge="1">
          <mxGeometry relative="1" as="geometry">
            <mxPoint x="270" y="640" as="sourcePoint" />
            <mxPoint x="270" y="672" as="targetPoint" />
          </mxGeometry>
        </mxCell>
        <mxCell id="aw9R8d-JMyGhQJO1moxB-20" style="rounded=0;orthogonalLoop=1;jettySize=auto;html=1;endArrow=none;endFill=0;strokeWidth=2;" parent="1" edge="1">
          <mxGeometry relative="1" as="geometry">
            <mxPoint x="300" y="670" as="sourcePoint" />
            <mxPoint x="300" y="700" as="targetPoint" />
          </mxGeometry>
        </mxCell>
        <mxCell id="aw9R8d-JMyGhQJO1moxB-21" style="rounded=0;orthogonalLoop=1;jettySize=auto;html=1;endArrow=none;endFill=0;strokeWidth=2;entryX=0.824;entryY=0;entryDx=0;entryDy=0;entryPerimeter=0;" parent="1" target="aw9R8d-JMyGhQJO1moxB-8" edge="1">
          <mxGeometry relative="1" as="geometry">
            <mxPoint x="425" y="700" as="sourcePoint" />
            <mxPoint x="350" y="802" as="targetPoint" />
            <Array as="points" />
          </mxGeometry>
        </mxCell>
        <mxCell id="aw9R8d-JMyGhQJO1moxB-22" style="rounded=0;orthogonalLoop=1;jettySize=auto;html=1;endArrow=none;endFill=0;strokeWidth=2;exitX=0.181;exitY=-0.031;exitDx=0;exitDy=0;exitPerimeter=0;entryX=0.181;entryY=1.031;entryDx=0;entryDy=0;entryPerimeter=0;" parent="1" source="aw9R8d-JMyGhQJO1moxB-10" target="aw9R8d-JMyGhQJO1moxB-10" edge="1">
          <mxGeometry relative="1" as="geometry">
            <mxPoint x="250" y="740" as="sourcePoint" />
            <mxPoint x="180" y="850" as="targetPoint" />
          </mxGeometry>
        </mxCell>
        <mxCell id="aw9R8d-JMyGhQJO1moxB-23" style="rounded=0;orthogonalLoop=1;jettySize=auto;html=1;endArrow=none;endFill=0;strokeWidth=2;entryX=0.395;entryY=1.031;entryDx=0;entryDy=0;entryPerimeter=0;" parent="1" target="aw9R8d-JMyGhQJO1moxB-10" edge="1">
          <mxGeometry relative="1" as="geometry">
            <mxPoint x="266" y="820" as="sourcePoint" />
            <mxPoint x="260" y="802" as="targetPoint" />
          </mxGeometry>
        </mxCell>
        <mxCell id="aw9R8d-JMyGhQJO1moxB-24" style="rounded=0;orthogonalLoop=1;jettySize=auto;html=1;endArrow=none;endFill=0;strokeWidth=2;entryX=0.673;entryY=1;entryDx=0;entryDy=0;entryPerimeter=0;exitX=0.676;exitY=0;exitDx=0;exitDy=0;exitPerimeter=0;" parent="1" source="aw9R8d-JMyGhQJO1moxB-10" target="aw9R8d-JMyGhQJO1moxB-10" edge="1">
          <mxGeometry relative="1" as="geometry">
            <mxPoint x="380" y="730" as="sourcePoint" />
            <mxPoint x="380" y="762" as="targetPoint" />
          </mxGeometry>
        </mxCell>
        <mxCell id="aw9R8d-JMyGhQJO1moxB-25" style="rounded=0;orthogonalLoop=1;jettySize=auto;html=1;endArrow=none;endFill=0;strokeWidth=2;exitX=0.162;exitY=1;exitDx=0;exitDy=0;exitPerimeter=0;" parent="1" source="aw9R8d-JMyGhQJO1moxB-12" edge="1">
          <mxGeometry relative="1" as="geometry">
            <mxPoint x="330" y="910" as="sourcePoint" />
            <mxPoint x="180" y="960" as="targetPoint" />
          </mxGeometry>
        </mxCell>
        <mxCell id="aw9R8d-JMyGhQJO1moxB-26" style="rounded=0;orthogonalLoop=1;jettySize=auto;html=1;endArrow=none;endFill=0;strokeWidth=2;entryX=0.376;entryY=1.031;entryDx=0;entryDy=0;entryPerimeter=0;" parent="1" target="aw9R8d-JMyGhQJO1moxB-12" edge="1">
          <mxGeometry relative="1" as="geometry">
            <mxPoint x="259" y="960" as="sourcePoint" />
            <mxPoint x="300" y="942" as="targetPoint" />
          </mxGeometry>
        </mxCell>
        <mxCell id="aw9R8d-JMyGhQJO1moxB-28" style="rounded=0;orthogonalLoop=1;jettySize=auto;html=1;endArrow=none;endFill=0;strokeWidth=2;exitX=0.153;exitY=0.028;exitDx=0;exitDy=0;exitPerimeter=0;entryX=0.153;entryY=1;entryDx=0;entryDy=0;entryPerimeter=0;" parent="1" edge="1" target="aw9R8d-JMyGhQJO1moxB-14" source="aw9R8d-JMyGhQJO1moxB-14">
          <mxGeometry relative="1" as="geometry">
            <mxPoint x="170" y="1100" as="sourcePoint" />
            <mxPoint x="170" y="1130" as="targetPoint" />
          </mxGeometry>
        </mxCell>
        <mxCell id="aw9R8d-JMyGhQJO1moxB-32" style="rounded=0;orthogonalLoop=1;jettySize=auto;html=1;endArrow=none;endFill=0;strokeWidth=2;entryX=0.538;entryY=1.019;entryDx=0;entryDy=0;entryPerimeter=0;exitX=0.537;exitY=0.011;exitDx=0;exitDy=0;exitPerimeter=0;" parent="1" source="aw9R8d-JMyGhQJO1moxB-14" target="aw9R8d-JMyGhQJO1moxB-14" edge="1">
          <mxGeometry relative="1" as="geometry">
            <mxPoint x="340" y="1050" as="sourcePoint" />
            <mxPoint x="340" y="1082" as="targetPoint" />
          </mxGeometry>
        </mxCell>
        <mxCell id="aw9R8d-JMyGhQJO1moxB-33" style="rounded=0;orthogonalLoop=1;jettySize=auto;html=1;endArrow=none;endFill=0;strokeWidth=2;entryX=0.675;entryY=0.938;entryDx=0;entryDy=0;entryPerimeter=0;exitX=0.678;exitY=-0.031;exitDx=0;exitDy=0;exitPerimeter=0;" parent="1" source="aw9R8d-JMyGhQJO1moxB-16" target="aw9R8d-JMyGhQJO1moxB-16" edge="1">
          <mxGeometry relative="1" as="geometry">
            <mxPoint x="342" y="1280" as="sourcePoint" />
            <mxPoint x="330" y="1272" as="targetPoint" />
          </mxGeometry>
        </mxCell>
        <mxCell id="aw9R8d-JMyGhQJO1moxB-34" style="rounded=0;orthogonalLoop=1;jettySize=auto;html=1;endArrow=none;endFill=0;strokeWidth=2;entryX=0.363;entryY=1.063;entryDx=0;entryDy=0;entryPerimeter=0;exitX=0.366;exitY=0.031;exitDx=0;exitDy=0;exitPerimeter=0;" parent="1" source="aw9R8d-JMyGhQJO1moxB-16" target="aw9R8d-JMyGhQJO1moxB-16" edge="1">
          <mxGeometry relative="1" as="geometry">
            <mxPoint x="220" y="1240" as="sourcePoint" />
            <mxPoint x="220" y="1272" as="targetPoint" />
          </mxGeometry>
        </mxCell>
        <mxCell id="aw9R8d-JMyGhQJO1moxB-35" style="rounded=0;orthogonalLoop=1;jettySize=auto;html=1;endArrow=none;endFill=0;strokeWidth=2;entryX=0.138;entryY=1;entryDx=0;entryDy=0;entryPerimeter=0;" parent="1" target="aw9R8d-JMyGhQJO1moxB-16" edge="1">
          <mxGeometry relative="1" as="geometry">
            <mxPoint x="164" y="1270" as="sourcePoint" />
            <mxPoint x="150" y="1282" as="targetPoint" />
          </mxGeometry>
        </mxCell>
        <mxCell id="aw9R8d-JMyGhQJO1moxB-36" style="rounded=0;orthogonalLoop=1;jettySize=auto;html=1;endArrow=none;endFill=0;strokeWidth=2;entryX=0.342;entryY=0;entryDx=0;entryDy=0;entryPerimeter=0;exitX=0.342;exitY=0.969;exitDx=0;exitDy=0;exitPerimeter=0;" parent="1" source="aw9R8d-JMyGhQJO1moxB-18" target="aw9R8d-JMyGhQJO1moxB-18" edge="1">
          <mxGeometry relative="1" as="geometry">
            <mxPoint x="300" y="1350" as="sourcePoint" />
            <mxPoint x="300" y="1382" as="targetPoint" />
          </mxGeometry>
        </mxCell>
        <mxCell id="aw9R8d-JMyGhQJO1moxB-37" style="rounded=0;orthogonalLoop=1;jettySize=auto;html=1;endArrow=none;endFill=0;strokeWidth=2;entryX=0.668;entryY=1.125;entryDx=0;entryDy=0;entryPerimeter=0;exitX=0.67;exitY=0;exitDx=0;exitDy=0;exitPerimeter=0;" parent="1" source="aw9R8d-JMyGhQJO1moxB-12" target="aw9R8d-JMyGhQJO1moxB-12" edge="1">
          <mxGeometry relative="1" as="geometry">
            <mxPoint x="350" y="910" as="sourcePoint" />
            <mxPoint x="350" y="942" as="targetPoint" />
          </mxGeometry>
        </mxCell>
        <mxCell id="aw9R8d-JMyGhQJO1moxB-38" style="rounded=0;orthogonalLoop=1;jettySize=auto;html=1;endArrow=none;endFill=0;strokeWidth=2;entryX=0.668;entryY=0.969;entryDx=0;entryDy=0;entryPerimeter=0;" parent="1" target="aw9R8d-JMyGhQJO1moxB-12" edge="1">
          <mxGeometry relative="1" as="geometry">
            <mxPoint x="367" y="960" as="sourcePoint" />
            <mxPoint x="320" y="922" as="targetPoint" />
          </mxGeometry>
        </mxCell>
        <mxCell id="aw9R8d-JMyGhQJO1moxB-40" style="rounded=0;orthogonalLoop=1;jettySize=auto;html=1;endArrow=none;endFill=0;strokeWidth=2;exitX=0.854;exitY=0;exitDx=0;exitDy=0;exitPerimeter=0;entryX=0.853;entryY=1.017;entryDx=0;entryDy=0;entryPerimeter=0;" parent="1" source="aw9R8d-JMyGhQJO1moxB-1" target="aw9R8d-JMyGhQJO1moxB-1" edge="1">
          <mxGeometry relative="1" as="geometry">
            <mxPoint x="610" y="480" as="sourcePoint" />
            <mxPoint x="624" y="540" as="targetPoint" />
          </mxGeometry>
        </mxCell>
        <mxCell id="aw9R8d-JMyGhQJO1moxB-42" value="" style="endArrow=classic;html=1;rounded=0;entryX=0.137;entryY=1.063;entryDx=0;entryDy=0;entryPerimeter=0;exitX=0.935;exitY=-0.04;exitDx=0;exitDy=0;exitPerimeter=0;" parent="1" source="aw9R8d-JMyGhQJO1moxB-1" target="NwuVcY80nq5zYPx6CeKI-27" edge="1">
          <mxGeometry width="50" height="50" relative="1" as="geometry">
            <mxPoint x="670" y="500" as="sourcePoint" />
            <mxPoint x="510" y="570" as="targetPoint" />
            <Array as="points">
              <mxPoint x="670" y="460" />
              <mxPoint x="920" y="460" />
              <mxPoint x="920" y="320" />
              <mxPoint x="172" y="320" />
            </Array>
          </mxGeometry>
        </mxCell>
        <mxCell id="aw9R8d-JMyGhQJO1moxB-43" style="rounded=0;orthogonalLoop=1;jettySize=auto;html=1;endArrow=none;endFill=0;strokeWidth=2;entryX=0.653;entryY=0.969;entryDx=0;entryDy=0;entryPerimeter=0;exitX=0.653;exitY=-0.014;exitDx=0;exitDy=0;exitPerimeter=0;" parent="1" source="aw9R8d-JMyGhQJO1moxB-1" target="aw9R8d-JMyGhQJO1moxB-1" edge="1">
          <mxGeometry relative="1" as="geometry">
            <mxPoint x="500" y="600" as="sourcePoint" />
            <mxPoint x="500" y="632" as="targetPoint" />
          </mxGeometry>
        </mxCell>
        <mxCell id="aw9R8d-JMyGhQJO1moxB-44" value="" style="endArrow=classic;html=1;rounded=0;entryX=0.066;entryY=0.99;entryDx=0;entryDy=0;entryPerimeter=0;" parent="1" target="NwuVcY80nq5zYPx6CeKI-1" edge="1">
          <mxGeometry width="50" height="50" relative="1" as="geometry">
            <mxPoint x="490" y="510" as="sourcePoint" />
            <mxPoint x="490" y="370" as="targetPoint" />
            <Array as="points">
              <mxPoint x="490" y="480" />
              <mxPoint x="950" y="480" />
              <mxPoint x="950" y="200" />
              <mxPoint x="160" y="200" />
            </Array>
          </mxGeometry>
        </mxCell>
        <mxCell id="aw9R8d-JMyGhQJO1moxB-45" value="" style="endArrow=classic;html=1;rounded=0;entryX=0.085;entryY=1.031;entryDx=0;entryDy=0;entryPerimeter=0;exitX=0.75;exitY=0;exitDx=0;exitDy=0;" parent="1" source="aw9R8d-JMyGhQJO1moxB-1" target="NwuVcY80nq5zYPx6CeKI-46" edge="1">
          <mxGeometry width="50" height="50" relative="1" as="geometry">
            <mxPoint x="440" y="420" as="sourcePoint" />
            <mxPoint x="490" y="370" as="targetPoint" />
            <Array as="points">
              <mxPoint x="562" y="440" />
              <mxPoint x="180" y="440" />
            </Array>
          </mxGeometry>
        </mxCell>
        <mxCell id="aw9R8d-JMyGhQJO1moxB-46" value="" style="endArrow=classic;html=1;rounded=0;exitX=0.903;exitY=-0.013;exitDx=0;exitDy=0;exitPerimeter=0;entryX=0.041;entryY=-0.012;entryDx=0;entryDy=0;entryPerimeter=0;" parent="1" source="aw9R8d-JMyGhQJO1moxB-8" target="NwuVcY80nq5zYPx6CeKI-1" edge="1">
          <mxGeometry width="50" height="50" relative="1" as="geometry">
            <mxPoint x="440" y="420" as="sourcePoint" />
            <mxPoint x="130" y="130" as="targetPoint" />
            <Array as="points">
              <mxPoint x="454" y="650" />
              <mxPoint x="70" y="650" />
              <mxPoint x="70" y="120" />
              <mxPoint x="145" y="120" />
            </Array>
          </mxGeometry>
        </mxCell>
        <mxCell id="aw9R8d-JMyGhQJO1moxB-47" value="" style="endArrow=classic;html=1;rounded=0;entryX=0.058;entryY=1.013;entryDx=0;entryDy=0;entryPerimeter=0;exitX=0.094;exitY=1.063;exitDx=0;exitDy=0;exitPerimeter=0;" parent="1" source="aw9R8d-JMyGhQJO1moxB-14" target="aw9R8d-JMyGhQJO1moxB-12" edge="1">
          <mxGeometry width="50" height="50" relative="1" as="geometry">
            <mxPoint x="440" y="990" as="sourcePoint" />
            <mxPoint x="490" y="940" as="targetPoint" />
            <Array as="points">
              <mxPoint x="158" y="1150" />
              <mxPoint x="110" y="1150" />
              <mxPoint x="110" y="1010" />
              <mxPoint x="140" y="1010" />
            </Array>
          </mxGeometry>
        </mxCell>
        <mxCell id="aw9R8d-JMyGhQJO1moxB-48" value="" style="endArrow=classic;html=1;rounded=0;exitX=0.08;exitY=-0.05;exitDx=0;exitDy=0;exitPerimeter=0;entryX=0.031;entryY=1.08;entryDx=0;entryDy=0;entryPerimeter=0;" parent="1" source="aw9R8d-JMyGhQJO1moxB-16" target="NwuVcY80nq5zYPx6CeKI-1" edge="1">
          <mxGeometry width="50" height="50" relative="1" as="geometry">
            <mxPoint x="440" y="990" as="sourcePoint" />
            <mxPoint x="80" y="760" as="targetPoint" />
            <Array as="points">
              <mxPoint x="146" y="1250" />
              <mxPoint x="60" y="1250" />
              <mxPoint x="60" y="200" />
              <mxPoint x="137" y="200" />
            </Array>
          </mxGeometry>
        </mxCell>
        <mxCell id="aw9R8d-JMyGhQJO1moxB-49" value="" style="endArrow=classic;html=1;rounded=0;exitX=0.25;exitY=0;exitDx=0;exitDy=0;entryX=0.105;entryY=1.088;entryDx=0;entryDy=0;entryPerimeter=0;" parent="1" source="aw9R8d-JMyGhQJO1moxB-16" target="NwuVcY80nq5zYPx6CeKI-27" edge="1">
          <mxGeometry width="50" height="50" relative="1" as="geometry">
            <mxPoint x="370" y="1240" as="sourcePoint" />
            <mxPoint x="80" y="700" as="targetPoint" />
            <Array as="points">
              <mxPoint x="200" y="1240" />
              <mxPoint x="90" y="1240" />
              <mxPoint x="90" y="650" />
              <mxPoint x="90" y="320" />
              <mxPoint x="160" y="320" />
            </Array>
          </mxGeometry>
        </mxCell>
        <mxCell id="aw9R8d-JMyGhQJO1moxB-50" value="" style="endArrow=classic;html=1;rounded=0;exitX=0.198;exitY=0.013;exitDx=0;exitDy=0;exitPerimeter=0;entryX=0.061;entryY=-0.107;entryDx=0;entryDy=0;entryPerimeter=0;" parent="1" source="aw9R8d-JMyGhQJO1moxB-18" target="NwuVcY80nq5zYPx6CeKI-1" edge="1">
          <mxGeometry width="50" height="50" relative="1" as="geometry">
            <mxPoint x="160" y="1410" as="sourcePoint" />
            <mxPoint x="70" y="358.4" as="targetPoint" />
            <Array as="points">
              <mxPoint x="158" y="1400" />
              <mxPoint x="50" y="1400" />
              <mxPoint x="50" y="110" />
              <mxPoint x="157" y="110" />
            </Array>
          </mxGeometry>
        </mxCell>
        <mxCell id="EjGCghVC3pDexLUO6-z3-2" style="rounded=0;orthogonalLoop=1;jettySize=auto;html=1;endArrow=none;endFill=0;strokeWidth=2;exitX=0.615;exitY=0.999;exitDx=0;exitDy=0;exitPerimeter=0;" edge="1" parent="1" source="NwuVcY80nq5zYPx6CeKI-1">
          <mxGeometry relative="1" as="geometry">
            <mxPoint x="540" y="90" as="sourcePoint" />
            <mxPoint x="483" y="140" as="targetPoint" />
          </mxGeometry>
        </mxCell>
        <mxCell id="EjGCghVC3pDexLUO6-z3-4" style="rounded=0;orthogonalLoop=1;jettySize=auto;html=1;endArrow=none;endFill=0;strokeWidth=2;exitX=0.378;exitY=-0.042;exitDx=0;exitDy=0;exitPerimeter=0;entryX=0.378;entryY=0.999;entryDx=0;entryDy=0;entryPerimeter=0;" edge="1" parent="1" source="aw9R8d-JMyGhQJO1moxB-14" target="aw9R8d-JMyGhQJO1moxB-14">
          <mxGeometry relative="1" as="geometry">
            <mxPoint x="310" y="1050" as="sourcePoint" />
            <mxPoint x="271" y="1130" as="targetPoint" />
          </mxGeometry>
        </mxCell>
        <mxCell id="EjGCghVC3pDexLUO6-z3-5" style="rounded=0;orthogonalLoop=1;jettySize=auto;html=1;endArrow=none;endFill=0;strokeWidth=2;entryX=0.848;entryY=1.039;entryDx=0;entryDy=0;entryPerimeter=0;exitX=0.845;exitY=-0.029;exitDx=0;exitDy=0;exitPerimeter=0;" edge="1" parent="1" source="aw9R8d-JMyGhQJO1moxB-14" target="aw9R8d-JMyGhQJO1moxB-14">
          <mxGeometry relative="1" as="geometry">
            <mxPoint x="460" y="1100" as="sourcePoint" />
            <mxPoint x="461" y="1130" as="targetPoint" />
            <Array as="points" />
          </mxGeometry>
        </mxCell>
        <mxCell id="EjGCghVC3pDexLUO6-z3-6" style="rounded=0;orthogonalLoop=1;jettySize=auto;html=1;endArrow=none;endFill=0;strokeWidth=2;exitX=0.492;exitY=0.979;exitDx=0;exitDy=0;exitPerimeter=0;entryX=0.492;entryY=-0.009;entryDx=0;entryDy=0;entryPerimeter=0;" edge="1" parent="1" source="NwuVcY80nq5zYPx6CeKI-1" target="NwuVcY80nq5zYPx6CeKI-1">
          <mxGeometry relative="1" as="geometry">
            <mxPoint x="410" y="110" as="sourcePoint" />
            <mxPoint x="411" y="78" as="targetPoint" />
          </mxGeometry>
        </mxCell>
        <mxCell id="EjGCghVC3pDexLUO6-z3-7" style="rounded=0;orthogonalLoop=1;jettySize=auto;html=1;endArrow=none;endFill=0;strokeWidth=2;entryX=0.88;entryY=0.011;entryDx=0;entryDy=0;entryPerimeter=0;" edge="1" parent="1" target="NwuVcY80nq5zYPx6CeKI-1">
          <mxGeometry relative="1" as="geometry">
            <mxPoint x="639" y="170" as="sourcePoint" />
            <mxPoint x="591" y="48" as="targetPoint" />
            <Array as="points">
              <mxPoint x="639" y="170" />
            </Array>
          </mxGeometry>
        </mxCell>
        <mxCell id="EjGCghVC3pDexLUO6-z3-8" value="" style="endArrow=classic;html=1;rounded=0;exitX=0.828;exitY=1.019;exitDx=0;exitDy=0;exitPerimeter=0;entryX=0.101;entryY=-0.009;entryDx=0;entryDy=0;entryPerimeter=0;" edge="1" parent="1" source="NwuVcY80nq5zYPx6CeKI-1" target="aw9R8d-JMyGhQJO1moxB-12">
          <mxGeometry width="50" height="50" relative="1" as="geometry">
            <mxPoint x="480" y="230" as="sourcePoint" />
            <mxPoint x="280" y="780" as="targetPoint" />
            <Array as="points">
              <mxPoint x="610" y="190" />
              <mxPoint x="990" y="190" />
              <mxPoint x="990" y="940" />
              <mxPoint x="157" y="940" />
            </Array>
          </mxGeometry>
        </mxCell>
        <mxCell id="EjGCghVC3pDexLUO6-z3-9" value="" style="endArrow=classic;html=1;rounded=0;exitX=0.949;exitY=1.019;exitDx=0;exitDy=0;exitPerimeter=0;entryX=0.107;entryY=-0.029;entryDx=0;entryDy=0;entryPerimeter=0;" edge="1" parent="1" source="NwuVcY80nq5zYPx6CeKI-1" target="aw9R8d-JMyGhQJO1moxB-10">
          <mxGeometry width="50" height="50" relative="1" as="geometry">
            <mxPoint x="480" y="230" as="sourcePoint" />
            <mxPoint x="330" y="890" as="targetPoint" />
            <Array as="points">
              <mxPoint x="680" y="180" />
              <mxPoint x="970" y="180" />
              <mxPoint x="970" y="800" />
              <mxPoint x="160" y="800" />
            </Array>
          </mxGeometry>
        </mxCell>
        <mxCell id="EjGCghVC3pDexLUO6-z3-12" value="" style="endArrow=classic;html=1;rounded=0;exitX=0.922;exitY=0.013;exitDx=0;exitDy=0;exitPerimeter=0;entryX=0.077;entryY=-0.07;entryDx=0;entryDy=0;entryPerimeter=0;" edge="1" parent="1" source="aw9R8d-JMyGhQJO1moxB-14" target="NwuVcY80nq5zYPx6CeKI-1">
          <mxGeometry width="50" height="50" relative="1" as="geometry">
            <mxPoint x="490" y="1090" as="sourcePoint" />
            <mxPoint x="230" y="110" as="targetPoint" />
            <Array as="points">
              <mxPoint x="489" y="1050" />
              <mxPoint x="1020" y="1050" />
              <mxPoint x="1020" y="110" />
              <mxPoint x="166" y="110" />
            </Array>
          </mxGeometry>
        </mxCell>
      </root>
    </mxGraphModel>
  </diagram>
</mxfile>
